<svg xmlns="http://www.w3.org/2000/svg" xmlns:xlink="http://www.w3.org/1999/xlink" preserveAspectRatio="xMidYMid" width="29.187" height="29.19" viewBox="0 0 29.187 29.19">
  <defs>
    <style>
      .cls-1 {
        fill: #000;
        opacity: 0.5;
        fill-rule: evenodd;
      }
    </style>
  </defs>
  <path d="M14.598,29.190 C6.564,29.190 0.012,22.637 0.012,14.602 C0.012,6.567 6.564,0.013 14.598,0.013 C22.632,0.013 29.184,6.542 29.184,14.602 C29.184,22.662 22.632,29.190 14.598,29.190 ZM14.598,2.073 C7.694,2.073 2.071,7.697 2.071,14.602 C2.071,21.507 7.694,27.131 14.598,27.131 C21.502,27.131 27.126,21.507 27.126,14.602 C27.126,7.697 21.502,2.073 14.598,2.073 ZM12.690,21.884 C12.489,22.085 12.213,22.185 11.962,22.185 C11.686,22.185 11.435,22.085 11.234,21.884 C10.832,21.482 10.832,20.829 11.234,20.427 L17.134,14.527 L11.234,8.626 C10.832,8.224 10.832,7.571 11.234,7.170 C11.636,6.768 12.289,6.768 12.690,7.170 L19.318,13.798 C19.519,13.999 19.619,14.250 19.619,14.527 C19.619,14.803 19.519,15.054 19.318,15.255 L12.690,21.884 Z" class="cls-1"/>
</svg>
