<svg xmlns="http://www.w3.org/2000/svg" xmlns:xlink="http://www.w3.org/1999/xlink" preserveAspectRatio="xMidYMid" width="41" height="41" viewBox="0 0 41 41">
  <defs>
    <style>
      .cls-1 {
        fill: #fff;
        fill-rule: evenodd;
      }
    </style>
  </defs>
  <path d="M20.500,41.000 C9.196,41.000 -0.000,31.803 -0.000,20.500 C-0.000,9.196 9.196,-0.000 20.500,-0.000 C31.803,-0.000 41.000,9.196 41.000,20.500 C41.000,31.803 31.803,41.000 20.500,41.000 ZM20.500,1.464 C10.003,1.464 1.464,10.004 1.464,20.500 C1.464,30.996 10.003,39.536 20.500,39.536 C30.997,39.536 39.536,30.996 39.536,20.500 C39.536,10.004 30.997,1.464 20.500,1.464 ZM29.286,29.286 L11.714,29.286 C11.309,29.286 10.982,28.958 10.982,28.553 C10.982,28.149 11.309,27.821 11.714,27.821 L29.286,27.821 C29.691,27.821 30.018,28.149 30.018,28.553 C30.018,28.958 29.691,29.286 29.286,29.286 ZM29.286,21.232 L11.714,21.232 C11.309,21.232 10.982,20.904 10.982,20.500 C10.982,20.096 11.309,19.768 11.714,19.768 L29.286,19.768 C29.691,19.768 30.018,20.096 30.018,20.500 C30.018,20.904 29.691,21.232 29.286,21.232 ZM29.286,13.178 L11.714,13.178 C11.309,13.178 10.982,12.851 10.982,12.446 C10.982,12.042 11.309,11.714 11.714,11.714 L29.286,11.714 C29.691,11.714 30.018,12.042 30.018,12.446 C30.018,12.851 29.691,13.178 29.286,13.178 Z" class="cls-1"/>
</svg>
