<svg xmlns="http://www.w3.org/2000/svg" xmlns:xlink="http://www.w3.org/1999/xlink" preserveAspectRatio="xMidYMid" width="16.438" height="20.81" viewBox="0 0 16.438 20.81">
  <defs>
    <style>
      .cls-1 {
        fill: #000;
        fill-rule: evenodd;
      }
    </style>
  </defs>
  <path d="M8.715,0.001 C2.919,0.002 -0.004,4.070 -0.004,7.462 C-0.004,8.089 0.070,8.694 0.223,9.252 C0.566,10.524 1.311,11.551 2.493,12.025 C2.774,12.136 3.024,12.029 3.105,11.725 C3.161,11.515 3.295,10.988 3.355,10.765 C3.435,10.466 3.405,10.362 3.179,10.100 C2.883,9.760 2.655,9.358 2.516,8.867 C2.425,8.540 2.372,8.175 2.372,7.759 C2.372,4.741 4.681,2.038 8.381,2.038 C11.657,2.038 13.458,3.998 13.458,6.615 C13.458,7.385 13.380,8.129 13.233,8.819 C12.723,11.213 11.384,12.965 9.591,12.965 C8.313,12.965 7.357,11.932 7.663,10.665 C7.839,9.944 8.091,9.196 8.308,8.492 C8.546,7.719 8.741,6.999 8.741,6.427 C8.741,5.450 8.205,4.635 7.096,4.635 C5.790,4.635 4.741,5.955 4.741,7.725 C4.741,8.058 4.776,8.359 4.824,8.618 C4.939,9.236 5.131,9.616 5.131,9.616 C5.131,9.616 3.796,15.152 3.562,16.123 C3.096,18.055 3.491,20.423 3.525,20.661 C3.545,20.803 3.732,20.837 3.816,20.730 C3.937,20.577 5.490,18.698 6.019,16.822 C6.168,16.290 6.877,13.540 6.877,13.540 C7.301,14.332 8.540,15.028 9.858,15.028 C13.052,15.028 15.410,12.705 16.175,9.312 C16.350,8.540 16.441,7.712 16.441,6.843 C16.441,3.300 13.375,0.001 8.715,0.001 Z" class="cls-1"/>
</svg>
