<svg xmlns="http://www.w3.org/2000/svg" xmlns:xlink="http://www.w3.org/1999/xlink" preserveAspectRatio="xMidYMid" width="89" height="92" viewBox="0 0 89 92">
  <defs>
    <style>
      .cls-1 {
        fill: #69d2e7;
        fill-rule: evenodd;
      }
    </style>
  </defs>
  <path d="M80.610,71.750 L62.606,63.981 C62.185,63.771 61.711,63.253 61.305,62.561 L73.386,62.550 C73.386,62.550 74.086,62.617 75.166,62.617 C77.152,62.617 80.049,62.396 82.570,61.314 C84.083,60.663 85.210,59.381 85.663,57.797 C86.115,56.197 85.827,54.499 84.876,53.141 C81.423,48.243 73.360,35.449 73.108,22.465 C72.722,6.902 59.406,-2.749 44.500,0.697 C29.599,-2.749 16.278,6.902 15.892,22.465 C15.640,35.449 7.582,48.243 4.129,53.141 C3.172,54.499 2.884,56.197 3.337,57.797 C3.790,59.381 4.917,60.663 6.429,61.314 C8.951,62.396 11.847,62.617 13.834,62.617 C14.919,62.617 15.614,62.550 15.614,62.550 L27.695,62.561 C27.289,63.253 26.820,63.771 26.393,63.981 L8.390,71.750 C3.178,74.350 -0.002,79.472 -0.002,85.180 L-0.002,92.000 C29.666,92.000 59.334,92.000 89.002,92.000 L89.002,85.180 C89.002,79.472 85.822,74.350 80.610,71.750 L80.610,71.750 Z" class="cls-1"/>
</svg>
