<svg xmlns="http://www.w3.org/2000/svg" xmlns:xlink="http://www.w3.org/1999/xlink" preserveAspectRatio="xMidYMid" width="29.156" height="29.19" viewBox="0 0 29.156 29.19">
  <defs>
    <style>
      .cls-1 {
        fill: #000;
        opacity: 0.5;
        fill-rule: evenodd;
      }
    </style>
  </defs>
  <path d="M14.575,29.190 C6.541,29.190 -0.012,22.662 -0.012,14.602 C-0.012,6.542 6.541,0.013 14.575,0.013 C22.608,0.013 29.161,6.567 29.161,14.602 C29.161,22.637 22.608,29.190 14.575,29.190 ZM14.575,2.073 C7.671,2.073 2.047,7.697 2.047,14.602 C2.047,21.507 7.671,27.131 14.575,27.131 C21.479,27.131 27.102,21.507 27.102,14.602 C27.102,7.697 21.479,2.073 14.575,2.073 ZM17.939,21.884 C17.738,22.085 17.487,22.185 17.211,22.185 C16.960,22.185 16.683,22.085 16.483,21.884 L9.855,15.255 C9.654,15.054 9.553,14.803 9.553,14.527 C9.553,14.250 9.654,13.999 9.855,13.798 L16.483,7.170 C16.884,6.768 17.537,6.768 17.939,7.170 C18.340,7.571 18.340,8.224 17.939,8.626 L12.039,14.527 L17.939,20.427 C18.340,20.829 18.340,21.482 17.939,21.884 Z" class="cls-1"/>
</svg>
